<?xml version="1.0" standalone="no"?>
<!DOCTYPE svg PUBLIC "-//W3C//DTD SVG 1.1//EN"
"http://www.w3.org/Graphics/SVG/1.1/DTD/svg11.dtd">
<svg height="600" version="1.1" width="800" xmlns="http://www.w3.org/2000/svg"><g><rect fill="#f9f9f9" height="600" width="800" x="0" y="0" /><g transform="translate(40 40)"><g transform="translate(24 0)"><text fill="#333" font-family="Monaco" font-size="16" x="0" y="0">Time vs Temperature</text></g><g transform="translate(0 20)"><g transform="translate(24 0)"><g class="axis bottom"><text dy="1em" fill="#666" font-family="Monaco" text-anchor="middle" transform="" x="348.0" y="486.0">Time</text><g class="tick"><line stroke="#eee" stroke-width="1" x1="34.80" x2="34.80" y1="0" y2="452.0" /><text dy="1em" fill="#9c9c9c" font-family="Monaco" text-anchor="middle" x="34.80" y="456.0">02/22/20 06:10:11</text></g><g class="tick"><line stroke="#eee" stroke-width="1" x1="69.6" x2="69.6" y1="0" y2="452.0" /><text dy="1em" fill="#9c9c9c" font-family="Monaco" text-anchor="middle" x="69.6" y="456.0">02/22/20 06:10:13</text></g><g class="tick"><line stroke="#eee" stroke-width="1" x1="104.40" x2="104.40" y1="0" y2="452.0" /><text dy="1em" fill="#9c9c9c" font-family="Monaco" text-anchor="middle" x="104.40" y="456.0">02/22/20 06:12:40</text></g><g class="tick"><line stroke="#eee" stroke-width="1" x1="139.2" x2="139.2" y1="0" y2="452.0" /><text dy="1em" fill="#9c9c9c" font-family="Monaco" text-anchor="middle" x="139.2" y="456.0">02/22/20 06:14:50</text></g><g class="tick"><line stroke="#eee" stroke-width="1" x1="174.00" x2="174.00" y1="0" y2="452.0" /><text dy="1em" fill="#9c9c9c" font-family="Monaco" text-anchor="middle" x="174.00" y="456.0">02/22/20 06:16:53</text></g><g class="tick"><line stroke="#eee" stroke-width="1" x1="208.8" x2="208.8" y1="0" y2="452.0" /><text dy="1em" fill="#9c9c9c" font-family="Monaco" text-anchor="middle" x="208.8" y="456.0">02/22/20 06:18:47</text></g><g class="tick"><line stroke="#eee" stroke-width="1" x1="243.60" x2="243.60" y1="0" y2="452.0" /><text dy="1em" fill="#9c9c9c" font-family="Monaco" text-anchor="middle" x="243.60" y="456.0">02/22/20 06:19:06</text></g><g class="tick"><line stroke="#eee" stroke-width="1" x1="278.4" x2="278.4" y1="0" y2="452.0" /><text dy="1em" fill="#9c9c9c" font-family="Monaco" text-anchor="middle" x="278.4" y="456.0">02/22/20 06:20:45</text></g><g class="tick"><line stroke="#eee" stroke-width="1" x1="313.20" x2="313.20" y1="0" y2="452.0" /><text dy="1em" fill="#9c9c9c" font-family="Monaco" text-anchor="middle" x="313.20" y="456.0">02/22/20 06:23:14</text></g><g class="tick"><line stroke="#eee" stroke-width="1" x1="348.0" x2="348.0" y1="0" y2="452.0" /><text dy="1em" fill="#9c9c9c" font-family="Monaco" text-anchor="middle" x="348.0" y="456.0">02/22/20 06:32:26</text></g><g class="tick"><line stroke="#eee" stroke-width="1" x1="382.80" x2="382.80" y1="0" y2="452.0" /><text dy="1em" fill="#9c9c9c" font-family="Monaco" text-anchor="middle" x="382.80" y="456.0">02/22/20 06:34:44</text></g><g class="tick"><line stroke="#eee" stroke-width="1" x1="417.6" x2="417.6" y1="0" y2="452.0" /><text dy="1em" fill="#9c9c9c" font-family="Monaco" text-anchor="middle" x="417.6" y="456.0">02/22/20 06:35:23</text></g><g class="tick"><line stroke="#eee" stroke-width="1" x1="452.40" x2="452.40" y1="0" y2="452.0" /><text dy="1em" fill="#9c9c9c" font-family="Monaco" text-anchor="middle" x="452.40" y="456.0">02/22/20 06:38:58</text></g><g class="tick"><line stroke="#eee" stroke-width="1" x1="487.2" x2="487.2" y1="0" y2="452.0" /><text dy="1em" fill="#9c9c9c" font-family="Monaco" text-anchor="middle" x="487.2" y="456.0">02/22/20 06:43:03</text></g><g class="tick"><line stroke="#eee" stroke-width="1" x1="522.00" x2="522.00" y1="0" y2="452.0" /><text dy="1em" fill="#9c9c9c" font-family="Monaco" text-anchor="middle" x="522.00" y="456.0">02/22/20 06:44:29</text></g><g class="tick"><line stroke="#eee" stroke-width="1" x1="556.8" x2="556.8" y1="0" y2="452.0" /><text dy="1em" fill="#9c9c9c" font-family="Monaco" text-anchor="middle" x="556.8" y="456.0">02/22/20 06:45:41</text></g><g class="tick"><line stroke="#eee" stroke-width="1" x1="591.60" x2="591.60" y1="0" y2="452.0" /><text dy="1em" fill="#9c9c9c" font-family="Monaco" text-anchor="middle" x="591.60" y="456.0">02/22/20 06:47:25</text></g><g class="tick"><line stroke="#eee" stroke-width="1" x1="626.4" x2="626.4" y1="0" y2="452.0" /><text dy="1em" fill="#9c9c9c" font-family="Monaco" text-anchor="middle" x="626.4" y="456.0">02/22/20 06:49:01</text></g><g class="tick"><line stroke="#eee" stroke-width="1" x1="661.20" x2="661.20" y1="0" y2="452.0" /><text dy="1em" fill="#9c9c9c" font-family="Monaco" text-anchor="middle" x="661.20" y="456.0">02/22/20 06:49:11</text></g><g class="tick"><line stroke="#a8a8a8" stroke-width="1" x1="0" x2="0" y1="0" y2="452.0" /><text dy="1em" fill="#9c9c9c" font-family="Monaco" text-anchor="middle" x="0" y="456.0">02/22/20 06:07:27</text></g></g><g class="axis left"><g class="tick"><line stroke="#eee" stroke-width="1" x1="-4" x2="696.0" y1="425.60" y2="425.60" /><text dy="0.32em" fill="#9c9c9c" font-family="Monaco" text-anchor="end" x="-8" y="425.60">5</text></g><g class="tick"><line stroke="#eee" stroke-width="1" x1="-4" x2="696.0" y1="403.2" y2="403.2" /><text dy="0.32em" fill="#9c9c9c" font-family="Monaco" text-anchor="end" x="-8" y="403.2">10</text></g><g class="tick"><line stroke="#eee" stroke-width="1" x1="-4" x2="696.0" y1="380.80" y2="380.80" /><text dy="0.32em" fill="#9c9c9c" font-family="Monaco" text-anchor="end" x="-8" y="380.80">15</text></g><g class="tick"><line stroke="#eee" stroke-width="1" x1="-4" x2="696.0" y1="358.4" y2="358.4" /><text dy="0.32em" fill="#9c9c9c" font-family="Monaco" text-anchor="end" x="-8" y="358.4">20</text></g><g class="tick"><line stroke="#eee" stroke-width="1" x1="-4" x2="696.0" y1="336.00" y2="336.00" /><text dy="0.32em" fill="#9c9c9c" font-family="Monaco" text-anchor="end" x="-8" y="336.00">25</text></g><g class="tick"><line stroke="#eee" stroke-width="1" x1="-4" x2="696.0" y1="313.6" y2="313.6" /><text dy="0.32em" fill="#9c9c9c" font-family="Monaco" text-anchor="end" x="-8" y="313.6">30</text></g><g class="tick"><line stroke="#eee" stroke-width="1" x1="-4" x2="696.0" y1="291.20" y2="291.20" /><text dy="0.32em" fill="#9c9c9c" font-family="Monaco" text-anchor="end" x="-8" y="291.20">35</text></g><g class="tick"><line stroke="#eee" stroke-width="1" x1="-4" x2="696.0" y1="268.8" y2="268.8" /><text dy="0.32em" fill="#9c9c9c" font-family="Monaco" text-anchor="end" x="-8" y="268.8">40</text></g><g class="tick"><line stroke="#eee" stroke-width="1" x1="-4" x2="696.0" y1="246.40" y2="246.40" /><text dy="0.32em" fill="#9c9c9c" font-family="Monaco" text-anchor="end" x="-8" y="246.40">45</text></g><g class="tick"><line stroke="#eee" stroke-width="1" x1="-4" x2="696.0" y1="224.0" y2="224.0" /><text dy="0.32em" fill="#9c9c9c" font-family="Monaco" text-anchor="end" x="-8" y="224.0">50</text></g><g class="tick"><line stroke="#eee" stroke-width="1" x1="-4" x2="696.0" y1="201.60" y2="201.60" /><text dy="0.32em" fill="#9c9c9c" font-family="Monaco" text-anchor="end" x="-8" y="201.60">55</text></g><g class="tick"><line stroke="#eee" stroke-width="1" x1="-4" x2="696.0" y1="179.2" y2="179.2" /><text dy="0.32em" fill="#9c9c9c" font-family="Monaco" text-anchor="end" x="-8" y="179.2">60</text></g><g class="tick"><line stroke="#eee" stroke-width="1" x1="-4" x2="696.0" y1="156.80" y2="156.80" /><text dy="0.32em" fill="#9c9c9c" font-family="Monaco" text-anchor="end" x="-8" y="156.80">65</text></g><g class="tick"><line stroke="#eee" stroke-width="1" x1="-4" x2="696.0" y1="134.4" y2="134.4" /><text dy="0.32em" fill="#9c9c9c" font-family="Monaco" text-anchor="end" x="-8" y="134.4">70</text></g><g class="tick"><line stroke="#eee" stroke-width="1" x1="-4" x2="696.0" y1="112.00" y2="112.00" /><text dy="0.32em" fill="#9c9c9c" font-family="Monaco" text-anchor="end" x="-8" y="112.00">75</text></g><g class="tick"><line stroke="#eee" stroke-width="1" x1="-4" x2="696.0" y1="89.6" y2="89.6" /><text dy="0.32em" fill="#9c9c9c" font-family="Monaco" text-anchor="end" x="-8" y="89.6">80</text></g><g class="tick"><line stroke="#eee" stroke-width="1" x1="-4" x2="696.0" y1="67.20" y2="67.20" /><text dy="0.32em" fill="#9c9c9c" font-family="Monaco" text-anchor="end" x="-8" y="67.20">85</text></g><g class="tick"><line stroke="#eee" stroke-width="1" x1="-4" x2="696.0" y1="44.8" y2="44.8" /><text dy="0.32em" fill="#9c9c9c" font-family="Monaco" text-anchor="end" x="-8" y="44.8">90</text></g><g class="tick"><line stroke="#a8a8a8" stroke-width="1" x1="-4" x2="696.0" y1="448" y2="448" /><text dy="0.32em" fill="#9c9c9c" font-family="Monaco" text-anchor="end" x="-8" y="448">0</text></g></g><g><g class="series lines"><path d="M 0 163.520 L 34.80 163.520 L 69.6 163.520 L 104.40 163.520 L 139.2 163.520 L 174.00 163.520 L 208.8 163.520 L 243.60 163.520 L 278.4 163.520 L 313.20 162.6239999999999872670741752 L 348.0 162.6239999999999872670741752 L 382.80 162.6239999999999872670741752 L 417.6 162.6239999999999872670741752 L 452.40 162.6239999999999872670741752 L 487.2 162.6239999999999872670741752 L 522.00 162.6239999999999872670741752 L 556.8 162.6239999999999872670741752 L 591.60 162.6239999999999872670741752 L 626.4 162.6239999999999872670741752 L 661.20 162.6239999999999872670741752 L 696 162.6239999999999872670741752" fill="none" stroke="#e41a1c" stroke-width="2" /></g></g></g></g></g></g></svg>