<?xml version="1.0" standalone="no"?>
<!DOCTYPE svg PUBLIC "-//W3C//DTD SVG 1.1//EN"
"http://www.w3.org/Graphics/SVG/1.1/DTD/svg11.dtd">
<svg height="600" version="1.1" width="800" xmlns="http://www.w3.org/2000/svg"><g><rect fill="#f9f9f9" height="600" width="800" x="0" y="0" /><g transform="translate(40 40)"><g transform="translate(24 0)"><text fill="#333" font-family="Monaco" font-size="16" x="0" y="0">Time vs Temperature</text></g><g transform="translate(0 20)"><g transform="translate(24 0)"><g class="axis bottom"><text dy="1em" fill="#666" font-family="Monaco" text-anchor="middle" transform="" x="348.0" y="486.0">Time</text><g class="tick"><line stroke="#eee" stroke-width="1" x1="87.000" x2="87.000" y1="0" y2="452.0" /><text dy="1em" fill="#9c9c9c" font-family="Monaco" text-anchor="middle" x="87.000" y="456.0">02/22/20 06:10:11</text></g><g class="tick"><line stroke="#eee" stroke-width="1" x1="174.00" x2="174.00" y1="0" y2="452.0" /><text dy="1em" fill="#9c9c9c" font-family="Monaco" text-anchor="middle" x="174.00" y="456.0">02/22/20 06:10:13</text></g><g class="tick"><line stroke="#eee" stroke-width="1" x1="261.000" x2="261.000" y1="0" y2="452.0" /><text dy="1em" fill="#9c9c9c" font-family="Monaco" text-anchor="middle" x="261.000" y="456.0">02/22/20 06:12:40</text></g><g class="tick"><line stroke="#eee" stroke-width="1" x1="348.0" x2="348.0" y1="0" y2="452.0" /><text dy="1em" fill="#9c9c9c" font-family="Monaco" text-anchor="middle" x="348.0" y="456.0">02/22/20 06:14:50</text></g><g class="tick"><line stroke="#eee" stroke-width="1" x1="435.000" x2="435.000" y1="0" y2="452.0" /><text dy="1em" fill="#9c9c9c" font-family="Monaco" text-anchor="middle" x="435.000" y="456.0">02/22/20 06:16:53</text></g><g class="tick"><line stroke="#eee" stroke-width="1" x1="522.00" x2="522.00" y1="0" y2="452.0" /><text dy="1em" fill="#9c9c9c" font-family="Monaco" text-anchor="middle" x="522.00" y="456.0">02/22/20 06:18:47</text></g><g class="tick"><line stroke="#eee" stroke-width="1" x1="609.000" x2="609.000" y1="0" y2="452.0" /><text dy="1em" fill="#9c9c9c" font-family="Monaco" text-anchor="middle" x="609.000" y="456.0">02/22/20 06:19:06</text></g><g class="tick"><line stroke="#a8a8a8" stroke-width="1" x1="0" x2="0" y1="0" y2="452.0" /><text dy="1em" fill="#9c9c9c" font-family="Monaco" text-anchor="middle" x="0" y="456.0">02/22/20 06:07:27</text></g></g><g class="axis left"><g class="tick"><line stroke="#eee" stroke-width="1" x1="-4" x2="696.0" y1="425.60" y2="425.60" /><text dy="0.32em" fill="#9c9c9c" font-family="Monaco" text-anchor="end" x="-8" y="425.60">5</text></g><g class="tick"><line stroke="#eee" stroke-width="1" x1="-4" x2="696.0" y1="403.2" y2="403.2" /><text dy="0.32em" fill="#9c9c9c" font-family="Monaco" text-anchor="end" x="-8" y="403.2">10</text></g><g class="tick"><line stroke="#eee" stroke-width="1" x1="-4" x2="696.0" y1="380.80" y2="380.80" /><text dy="0.32em" fill="#9c9c9c" font-family="Monaco" text-anchor="end" x="-8" y="380.80">15</text></g><g class="tick"><line stroke="#eee" stroke-width="1" x1="-4" x2="696.0" y1="358.4" y2="358.4" /><text dy="0.32em" fill="#9c9c9c" font-family="Monaco" text-anchor="end" x="-8" y="358.4">20</text></g><g class="tick"><line stroke="#eee" stroke-width="1" x1="-4" x2="696.0" y1="336.00" y2="336.00" /><text dy="0.32em" fill="#9c9c9c" font-family="Monaco" text-anchor="end" x="-8" y="336.00">25</text></g><g class="tick"><line stroke="#eee" stroke-width="1" x1="-4" x2="696.0" y1="313.6" y2="313.6" /><text dy="0.32em" fill="#9c9c9c" font-family="Monaco" text-anchor="end" x="-8" y="313.6">30</text></g><g class="tick"><line stroke="#eee" stroke-width="1" x1="-4" x2="696.0" y1="291.20" y2="291.20" /><text dy="0.32em" fill="#9c9c9c" font-family="Monaco" text-anchor="end" x="-8" y="291.20">35</text></g><g class="tick"><line stroke="#eee" stroke-width="1" x1="-4" x2="696.0" y1="268.8" y2="268.8" /><text dy="0.32em" fill="#9c9c9c" font-family="Monaco" text-anchor="end" x="-8" y="268.8">40</text></g><g class="tick"><line stroke="#eee" stroke-width="1" x1="-4" x2="696.0" y1="246.40" y2="246.40" /><text dy="0.32em" fill="#9c9c9c" font-family="Monaco" text-anchor="end" x="-8" y="246.40">45</text></g><g class="tick"><line stroke="#eee" stroke-width="1" x1="-4" x2="696.0" y1="224.0" y2="224.0" /><text dy="0.32em" fill="#9c9c9c" font-family="Monaco" text-anchor="end" x="-8" y="224.0">50</text></g><g class="tick"><line stroke="#eee" stroke-width="1" x1="-4" x2="696.0" y1="201.60" y2="201.60" /><text dy="0.32em" fill="#9c9c9c" font-family="Monaco" text-anchor="end" x="-8" y="201.60">55</text></g><g class="tick"><line stroke="#eee" stroke-width="1" x1="-4" x2="696.0" y1="179.2" y2="179.2" /><text dy="0.32em" fill="#9c9c9c" font-family="Monaco" text-anchor="end" x="-8" y="179.2">60</text></g><g class="tick"><line stroke="#eee" stroke-width="1" x1="-4" x2="696.0" y1="156.80" y2="156.80" /><text dy="0.32em" fill="#9c9c9c" font-family="Monaco" text-anchor="end" x="-8" y="156.80">65</text></g><g class="tick"><line stroke="#eee" stroke-width="1" x1="-4" x2="696.0" y1="134.4" y2="134.4" /><text dy="0.32em" fill="#9c9c9c" font-family="Monaco" text-anchor="end" x="-8" y="134.4">70</text></g><g class="tick"><line stroke="#eee" stroke-width="1" x1="-4" x2="696.0" y1="112.00" y2="112.00" /><text dy="0.32em" fill="#9c9c9c" font-family="Monaco" text-anchor="end" x="-8" y="112.00">75</text></g><g class="tick"><line stroke="#eee" stroke-width="1" x1="-4" x2="696.0" y1="89.6" y2="89.6" /><text dy="0.32em" fill="#9c9c9c" font-family="Monaco" text-anchor="end" x="-8" y="89.6">80</text></g><g class="tick"><line stroke="#eee" stroke-width="1" x1="-4" x2="696.0" y1="67.20" y2="67.20" /><text dy="0.32em" fill="#9c9c9c" font-family="Monaco" text-anchor="end" x="-8" y="67.20">85</text></g><g class="tick"><line stroke="#eee" stroke-width="1" x1="-4" x2="696.0" y1="44.8" y2="44.8" /><text dy="0.32em" fill="#9c9c9c" font-family="Monaco" text-anchor="end" x="-8" y="44.8">90</text></g><g class="tick"><line stroke="#a8a8a8" stroke-width="1" x1="-4" x2="696.0" y1="448" y2="448" /><text dy="0.32em" fill="#9c9c9c" font-family="Monaco" text-anchor="end" x="-8" y="448">0</text></g></g><g><g class="series lines"><path d="M 0 163.520 L 87.000 163.520 L 174.00 163.520 L 261.000 163.520 L 348.0 163.520 L 435.000 163.520 L 522.00 163.520 L 609.000 163.520 L 696 163.520 L 783.000 162.6239999999999872670741752 L 870.00 162.6239999999999872670741752 L 957.000 162.6239999999999872670741752 L 1044.0 162.6239999999999872670741752 L 1131.000 162.6239999999999872670741752 L 1218.00 162.6239999999999872670741752 L 1305.000 162.6239999999999872670741752 L 1392 162.6239999999999872670741752 L 1479.000 162.6239999999999872670741752" fill="none" stroke="#e41a1c" stroke-width="2" /></g></g></g></g></g></g></svg>